<svg width="16" height="16" viewBox="0 0 16 16" fill="none" xmlns="http://www.w3.org/2000/svg">
<g id="language" clip-path="url(#clip0_437_480)">
<path id="Vector" d="M8 0C3.58187 0 0 3.58187 0 8C0 12.4181 3.58187 16 8 16C12.4181 16 16 12.4181 16 8C16 3.58187 12.4181 0 8 0ZM14.9822 7.5H12.2922C12.2891 7.26937 12.2771 7.03917 12.2563 6.80937C12.1667 5.84829 11.928 4.90701 11.5487 4.01937C12.1757 3.90098 12.7945 3.74317 13.4016 3.54688C14.3281 4.66732 14.8808 6.04962 14.9822 7.5ZM5.53375 4.04906C6.18454 4.15985 6.84096 4.23455 7.5 4.27281V7.5H4.70844C4.71135 7.30333 4.72177 7.10729 4.73969 6.91187C4.83563 5.81406 5.15438 4.84813 5.53375 4.04906ZM8.5 1.29406C9.08633 1.87265 9.59829 2.52202 10.0241 3.22719C9.70781 3.25781 9.38854 3.27865 9.06625 3.28969C8.87875 3.29656 8.69 3.3 8.5 3.3V1.29406ZM7.5 1.29406V3.27063C7.01583 3.24104 6.53 3.1899 6.0425 3.11719C6.15969 2.92781 6.27656 2.75406 6.38844 2.59687C6.72 2.13092 7.09196 1.69507 7.5 1.29437V1.29406ZM7.5 8.5V11.7275C6.9375 11.76 6.3724 11.8199 5.80469 11.9072C5.22531 10.7628 4.87521 9.6274 4.75437 8.50094L7.5 8.5ZM7.5 12.7291V14.5C7.07506 13.973 6.68366 13.4198 6.32812 12.8438C6.71979 12.7915 7.11042 12.7532 7.5 12.7291ZM8.5 12.6978C8.68917 12.6978 8.87792 12.7013 9.06625 12.7081C9.28906 12.7159 9.51031 12.7294 9.73 12.7466C9.35944 13.3577 8.94853 13.9435 8.5 14.5V12.6978ZM9.10219 11.7087C8.90198 11.7017 8.70125 11.698 8.5 11.6978V8.5H11.2456C11.1296 9.58729 10.7989 10.6843 10.2534 11.7909C9.87385 11.7509 9.4901 11.7238 9.10219 11.7094V11.7087ZM8.5 7.5V4.30156C8.70083 4.30156 8.90156 4.29792 9.10219 4.29063C9.58344 4.27333 10.0585 4.23573 10.5275 4.17781C10.9246 5.03667 11.1724 5.95693 11.2603 6.89906C11.2784 7.09906 11.2889 7.29938 11.2916 7.5H8.5ZM12.6187 2.74031C12.1176 2.88229 11.6092 2.99704 11.0956 3.08406C10.887 2.70337 10.6554 2.33571 10.4022 1.98312C10.2003 1.70187 10.0012 1.45187 9.81594 1.23719C10.8537 1.51528 11.813 2.02974 12.6187 2.74031ZM6.18406 1.23781C5.99875 1.45375 5.79969 1.70312 5.59781 1.98375C5.37926 2.28779 5.17669 2.60301 4.99094 2.92812C4.52156 2.82875 4.05135 2.70979 3.58031 2.57125C4.34403 1.94743 5.23152 1.49292 6.18406 1.23781ZM2.75625 3.36281C3.34583 3.55406 3.9351 3.71615 4.52406 3.84906C4.10376 4.78645 3.83984 5.78635 3.74281 6.80906C3.72198 7.03823 3.71 7.26844 3.70688 7.49969H1.01781C1.12491 5.96677 1.73615 4.51235 2.75625 3.36313V3.36281ZM1.01781 8.5H3.75C3.86313 9.69333 4.2074 10.8912 4.78281 12.0938C4.09883 12.2389 3.423 12.4201 2.75813 12.6366C1.73734 11.4876 1.12544 10.0331 1.01781 8.5ZM3.58031 13.4288C4.14281 13.2621 4.70531 13.1245 5.26781 13.0159C5.63533 13.6497 6.04478 14.2583 6.49344 14.8375C5.42538 14.6031 4.42752 14.1205 3.58063 13.4288H3.58031ZM9.50688 14.8375C9.9901 14.2143 10.4274 13.5569 10.8153 12.8703C11.4241 12.9616 12.0265 13.0917 12.6187 13.2597C11.7322 14.0412 10.6612 14.5841 9.50688 14.8375ZM13.4016 12.4531C12.7122 12.2303 12.0078 12.0572 11.2937 11.935C11.8235 10.7871 12.1428 9.64208 12.2516 8.5H14.9822C14.8808 9.95038 14.3281 11.3327 13.4016 12.4531Z" fill="#414141"/>
</g>
<defs>
<clipPath id="clip0_437_480">
<rect width="16" height="16" fill="white"/>
</clipPath>
</defs>
</svg>
